<svg width="20" height="20" viewBox="0 0 20 20" fill="none" xmlns="http://www.w3.org/2000/svg">
<path d="M7.94521 13.4104C7.79531 13.3648 7.68466 13.2539 7.68466 13.2539C7.56759 13.1366 7.4087 13.0705 7.24294 13.0703L7.24219 13.0703C7.23243 13.0703 7.22267 13.0705 7.21292 13.071C7.05771 13.0783 6.91078 13.1431 6.80078 13.2528C6.68324 13.3701 6.61719 13.5293 6.61719 13.6953C6.61719 13.7058 6.61745 13.7164 6.61799 13.7269C6.6258 13.8813 6.69054 14.0273 6.79971 14.1367C7.13167 14.4695 7.58134 14.6063 7.58134 14.6063C8.03101 14.7431 8.49205 14.6516 8.49205 14.6516C8.95309 14.5602 9.31646 14.262 9.31646 14.262C9.67983 13.9639 9.85959 13.5296 9.85959 13.5296C10.0394 13.0953 9.993 12.6276 9.993 12.6276C9.94664 12.1598 9.68512 11.7693 9.68512 11.7693C9.47691 11.4583 9.17151 11.2548 9.17151 11.2548L9.86304 10.3904C10.0787 10.1209 10.035 9.72759 9.76543 9.51196C9.65461 9.4233 9.51692 9.375 9.375 9.375H7.1875C6.84232 9.375 6.5625 9.65482 6.5625 10C6.5625 10.3452 6.84232 10.625 7.1875 10.625H8.07461L7.63696 11.1721C7.54807 11.2832 7.49976 11.4213 7.5 11.5636C7.50028 11.7293 7.5664 11.8882 7.68381 12.0052C7.80123 12.1222 7.96031 12.1878 8.12607 12.1875C8.28275 12.1872 8.42102 12.2609 8.42102 12.2609C8.55929 12.3346 8.64647 12.4648 8.64647 12.4648C8.73364 12.5949 8.74909 12.7509 8.74909 12.7509C8.76454 12.9068 8.70462 13.0515 8.70462 13.0515C8.6447 13.1963 8.52358 13.2957 8.52358 13.2957C8.40246 13.3951 8.24878 13.4255 8.24878 13.4255C8.0951 13.456 7.94521 13.4104 7.94521 13.4104Z" fill="white"/>
<path d="M11.875 14.0625V11.25L11.625 11.4375C11.5191 11.517 11.3906 11.5607 11.2582 11.5624L11.25 11.5625C11.0533 11.5625 10.868 11.4699 10.75 11.3125C10.6693 11.2049 10.6255 11.0741 10.625 10.9396L10.625 10.9375C10.625 10.9079 10.6271 10.8784 10.6313 10.8491C10.6547 10.685 10.7424 10.537 10.875 10.4375L12.125 9.5C12.2332 9.41886 12.3648 9.375 12.5 9.375C12.8452 9.375 13.125 9.65482 13.125 10V14.0625C13.125 14.4077 12.8452 14.6875 12.5 14.6875C12.1548 14.6875 11.875 14.4077 11.875 14.0625Z" fill="white"/>
<path fill-rule="evenodd" clip-rule="evenodd" d="M13.125 2.5V1.875C13.125 1.52982 13.4048 1.25 13.75 1.25C14.0952 1.25 14.375 1.52982 14.375 1.875V2.5H16.25C16.25 2.5 16.7678 2.5 17.1339 2.86612C17.1339 2.86612 17.5 3.23223 17.5 3.75V16.25C17.5 16.25 17.5 16.7678 17.1339 17.1339C17.1339 17.1339 16.7678 17.5 16.25 17.5H3.75C3.75 17.5 3.23223 17.5 2.86612 17.1339C2.86612 17.1339 2.5 16.7678 2.5 16.25V3.75C2.5 3.75 2.5 3.23223 2.86612 2.86612C2.86612 2.86612 3.23223 2.5 3.75 2.5H5.625V1.875C5.625 1.52982 5.90482 1.25 6.25 1.25C6.59518 1.25 6.875 1.52982 6.875 1.875V2.5H13.125ZM3.75 7.5V16.25H16.25V7.5H3.75ZM16.25 6.25H3.75V3.75H5.625V4.375C5.625 4.72018 5.90482 5 6.25 5C6.59518 5 6.875 4.72018 6.875 4.375V3.75H13.125V4.375C13.125 4.72018 13.4048 5 13.75 5C14.0952 5 14.375 4.72018 14.375 4.375V3.75H16.25V6.25Z" fill="white"/>
</svg>
