<svg width="20" height="20" viewBox="0 0 20 20" fill="none" xmlns="http://www.w3.org/2000/svg">
<path d="M10 10.625H16.875C17.2202 10.625 17.5 10.3452 17.5 10C17.5 9.65482 17.2202 9.375 16.875 9.375H10C9.65482 9.375 9.375 9.65482 9.375 10C9.375 10.3452 9.65482 10.625 10 10.625Z" fill="white"/>
<path d="M10 5.625H16.875C17.2202 5.625 17.5 5.34518 17.5 5C17.5 4.65482 17.2202 4.375 16.875 4.375H10C9.65482 4.375 9.375 4.65482 9.375 5C9.375 5.34518 9.65482 5.625 10 5.625Z" fill="white"/>
<path d="M10 15.625H16.875C17.2202 15.625 17.5 15.3452 17.5 15C17.5 14.6548 17.2202 14.375 16.875 14.375H10C9.65482 14.375 9.375 14.6548 9.375 15C9.375 15.3452 9.65482 15.625 10 15.625Z" fill="white"/>
<path d="M7.61102 4.20962C7.61722 4.20391 7.62348 4.1979 7.62944 4.19194C7.74047 4.08092 7.80564 3.93217 7.81199 3.77528L7.81202 3.77435C7.81234 3.76624 7.8125 3.75812 7.8125 3.75C7.8125 3.59298 7.7534 3.44172 7.64696 3.32629C7.64124 3.3201 7.6354 3.31402 7.62944 3.30806C7.51842 3.19703 7.36967 3.13186 7.21278 3.12551L7.21185 3.12547C7.20374 3.12516 7.19562 3.125 7.1875 3.125C7.03048 3.125 6.87922 3.1841 6.7638 3.29054L4.47717 5.39924L3.54937 4.54115C3.43386 4.43433 3.28232 4.375 3.125 4.375C3.11687 4.375 3.10874 4.37516 3.10062 4.37548C2.93499 4.38194 2.7787 4.45394 2.66615 4.57563C2.55933 4.69114 2.5 4.84267 2.5 5C2.5 5.00813 2.50016 5.01626 2.50048 5.02438C2.50694 5.19001 2.57894 5.3463 2.70063 5.45885L4.0522 6.70885C4.29148 6.93015 4.66066 6.93042 4.90027 6.70946L7.61102 4.20962Z" fill="white"/>
<path d="M7.61102 9.20962C7.61722 9.20391 7.62348 9.1979 7.62944 9.19194C7.74047 9.08092 7.80564 8.93217 7.81199 8.77528L7.81202 8.77435C7.81234 8.76624 7.8125 8.75812 7.8125 8.75C7.8125 8.59298 7.7534 8.44172 7.64696 8.3263C7.64124 8.3201 7.6354 8.31402 7.62944 8.30806C7.51842 8.19703 7.36967 8.13186 7.21278 8.12551L7.21185 8.12547C7.20374 8.12516 7.19562 8.125 7.1875 8.125C7.03048 8.125 6.87922 8.1841 6.7638 8.29054L4.47717 10.3992L3.54937 9.54116C3.43386 9.43433 3.28232 9.375 3.125 9.375C3.11687 9.375 3.10874 9.37516 3.10062 9.37548C2.93499 9.38194 2.7787 9.45394 2.66615 9.57563C2.55933 9.69114 2.5 9.84267 2.5 10C2.5 10.0081 2.50016 10.0163 2.50048 10.0244C2.50694 10.19 2.57894 10.3463 2.70063 10.4588L4.0522 11.7088C4.29148 11.9302 4.66066 11.9304 4.90027 11.7095L7.61102 9.20962Z" fill="white"/>
<path d="M7.61102 14.2096C7.61722 14.2039 7.62348 14.1979 7.62944 14.1919C7.74047 14.0809 7.80564 13.9322 7.81199 13.7753L7.81202 13.7744C7.81234 13.7662 7.8125 13.7581 7.8125 13.75C7.8125 13.593 7.7534 13.4417 7.64696 13.3263C7.64124 13.3201 7.6354 13.314 7.62944 13.3081C7.51842 13.197 7.36967 13.1319 7.21278 13.1255L7.21185 13.1255C7.20374 13.1252 7.19562 13.125 7.1875 13.125C7.03048 13.125 6.87922 13.1841 6.7638 13.2905L4.47717 15.3992L3.54937 14.5412C3.43386 14.4343 3.28232 14.375 3.125 14.375C3.11687 14.375 3.10874 14.3752 3.10062 14.3755C2.93499 14.3819 2.7787 14.4539 2.66615 14.5756C2.55933 14.6911 2.5 14.8427 2.5 15C2.5 15.0081 2.50016 15.0163 2.50048 15.0244C2.50694 15.19 2.57894 15.3463 2.70063 15.4588L4.0522 16.7088C4.29148 16.9302 4.66066 16.9304 4.90027 16.7095L7.61102 14.2096Z" fill="white"/>
</svg>
