<svg width="21" height="21" viewBox="0 0 21 21" fill="none" xmlns="http://www.w3.org/2000/svg">
<path d="M11.3837 2.555L16.5462 4.8475C18.0337 5.50375 18.0337 6.58875 16.5462 7.245L11.3837 9.5375C10.7975 9.8 9.835 9.8 9.24875 9.5375L4.08625 7.245C2.59875 6.58875 2.59875 5.50375 4.08625 4.8475L9.24875 2.555C9.835 2.2925 10.7975 2.2925 11.3837 2.555Z" stroke="#1C1C1C" stroke-width="1.5" stroke-linecap="round" stroke-linejoin="round"/>
<path d="M2.625 9.625C2.625 10.36 3.17625 11.2087 3.85 11.5062L9.79125 14.1488C10.2462 14.35 10.7625 14.35 11.2088 14.1488L17.15 11.5062C17.8238 11.2087 18.375 10.36 18.375 9.625" stroke="#1C1C1C" stroke-width="1.5" stroke-linecap="round" stroke-linejoin="round"/>
<path d="M2.625 14C2.625 14.8138 3.10625 15.5487 3.85 15.8812L9.79125 18.5238C10.2462 18.725 10.7625 18.725 11.2088 18.5238L17.15 15.8812C17.8938 15.5487 18.375 14.8138 18.375 14" stroke="#1C1C1C" stroke-width="1.5" stroke-linecap="round" stroke-linejoin="round"/>
</svg>
