<svg width="20" height="20" viewBox="0 0 20 20" fill="none" xmlns="http://www.w3.org/2000/svg">
<path d="M7.5 5.625H16.875C17.2202 5.625 17.5 5.34518 17.5 5C17.5 4.65482 17.2202 4.375 16.875 4.375H7.5C7.15482 4.375 6.875 4.65482 6.875 5C6.875 5.34518 7.15482 5.625 7.5 5.625Z" fill="#1C1C1C"/>
<path d="M7.5 10.625H16.875C17.2202 10.625 17.5 10.3452 17.5 10C17.5 9.65482 17.2202 9.375 16.875 9.375H7.5C7.15482 9.375 6.875 9.65482 6.875 10C6.875 10.3452 7.15482 10.625 7.5 10.625Z" fill="#1C1C1C"/>
<path d="M7.5 15.625H16.875C17.2202 15.625 17.5 15.3452 17.5 15C17.5 14.6548 17.2202 14.375 16.875 14.375H7.5C7.15482 14.375 6.875 14.6548 6.875 15C6.875 15.3452 7.15482 15.625 7.5 15.625Z" fill="#1C1C1C"/>
<path d="M2.5 5C2.5 5.34518 2.77982 5.625 3.125 5.625H4.375C4.72018 5.625 5 5.34518 5 5C5 4.65482 4.72018 4.375 4.375 4.375H3.125C2.77982 4.375 2.5 4.65482 2.5 5Z" fill="#1C1C1C"/>
<path d="M2.5 10C2.5 10.3452 2.77982 10.625 3.125 10.625H4.375C4.72018 10.625 5 10.3452 5 10C5 9.65482 4.72018 9.375 4.375 9.375H3.125C2.77982 9.375 2.5 9.65482 2.5 10Z" fill="#1C1C1C"/>
<path d="M2.5 15C2.5 15.3452 2.77982 15.625 3.125 15.625H4.375C4.72018 15.625 5 15.3452 5 15C5 14.6548 4.72018 14.375 4.375 14.375H3.125C2.77982 14.375 2.5 14.6548 2.5 15Z" fill="#1C1C1C"/>
</svg>
